<svg width="18" height="18" viewBox="0 0 18 18" fill="none" xmlns="http://www.w3.org/2000/svg">
<path d="M17.0571 16.0575L13.1454 12.1466C14.2792 10.7854 14.8445 9.03953 14.7239 7.27214C14.6032 5.50475 13.8058 3.85192 12.4975 2.65748C11.1893 1.46304 9.4709 0.818951 7.69985 0.859201C5.92881 0.899451 4.24146 1.62094 2.98882 2.87358C1.73617 4.12622 1.01469 5.81357 0.974435 7.58462C0.934185 9.35566 1.57827 11.074 2.77271 12.3823C3.96716 13.6906 5.61999 14.488 7.38737 14.6086C9.15476 14.7293 10.9006 14.1639 12.2618 13.0302L16.1727 16.9419C16.2308 16.9999 16.2997 17.046 16.3756 17.0774C16.4515 17.1089 16.5328 17.125 16.6149 17.125C16.697 17.125 16.7784 17.1089 16.8542 17.0774C16.9301 17.046 16.999 16.9999 17.0571 16.9419C17.1152 16.8838 17.1612 16.8149 17.1927 16.739C17.2241 16.6631 17.2403 16.5818 17.2403 16.4997C17.2403 16.4176 17.2241 16.3363 17.1927 16.2604C17.1612 16.1845 17.1152 16.1156 17.0571 16.0575ZM2.23992 7.74969C2.23992 6.63717 2.56982 5.54963 3.18791 4.62461C3.80599 3.69958 4.6845 2.97861 5.71233 2.55287C6.74016 2.12712 7.87116 2.01573 8.96231 2.23277C10.0535 2.44981 11.0557 2.98554 11.8424 3.77221C12.6291 4.55888 13.1648 5.56116 13.3818 6.65231C13.5989 7.74345 13.4875 8.87445 13.0617 9.90228C12.636 10.9301 11.915 11.8086 10.99 12.4267C10.065 13.0448 8.97744 13.3747 7.86492 13.3747C6.37359 13.373 4.94381 12.7799 3.88928 11.7253C2.83474 10.6708 2.24158 9.24102 2.23992 7.74969Z" fill="#B8B8B8"/>
</svg>
