<svg width="34" height="34" viewBox="0 0 18 22" fill="none" xmlns="http://www.w3.org/2000/svg">
<path d="M13.0741 11.4074C13.0741 11.6235 12.9883 11.8308 12.8355 11.9836C12.6827 12.1364 12.4754 12.2222 12.2593 12.2222H5.74081C5.52471 12.2222 5.31746 12.1364 5.16465 11.9836C5.01184 11.8308 4.926 11.6235 4.926 11.4074C4.926 11.1913 5.01184 10.9841 5.16465 10.8312C5.31746 10.6784 5.52471 10.5926 5.74081 10.5926H12.2593C12.4754 10.5926 12.6827 10.6784 12.8355 10.8312C12.9883 10.9841 13.0741 11.1913 13.0741 11.4074ZM12.2593 13.8519H5.74081C5.52471 13.8519 5.31746 13.9377 5.16465 14.0905C5.01184 14.2433 4.926 14.4506 4.926 14.6667C4.926 14.8828 5.01184 15.09 5.16465 15.2428C5.31746 15.3956 5.52471 15.4815 5.74081 15.4815H12.2593C12.4754 15.4815 12.6827 15.3956 12.8355 15.2428C12.9883 15.09 13.0741 14.8828 13.0741 14.6667C13.0741 14.4506 12.9883 14.2433 12.8355 14.0905C12.6827 13.9377 12.4754 13.8519 12.2593 13.8519ZM17.963 3.25926V18.7407C17.963 19.6052 17.6196 20.4342 17.0084 21.0454C16.3972 21.6566 15.5682 22 14.7038 22H3.29637C2.43196 22 1.60295 21.6566 0.991724 21.0454C0.380494 20.4342 0.0371094 19.6052 0.0371094 18.7407V3.25926C0.0371094 2.82705 0.208802 2.41255 0.514417 2.10694C0.820031 1.80132 1.23453 1.62963 1.66674 1.62963H3.29637V0.814815C3.29637 0.598713 3.38221 0.391461 3.53502 0.238654C3.68783 0.0858463 3.89508 0 4.11118 0C4.32728 0 4.53454 0.0858463 4.68734 0.238654C4.84015 0.391461 4.926 0.598713 4.926 0.814815V1.62963H8.18526V0.814815C8.18526 0.598713 8.2711 0.391461 8.42391 0.238654C8.57672 0.0858463 8.78397 0 9.00007 0C9.21617 0 9.42342 0.0858463 9.57623 0.238654C9.72904 0.391461 9.81489 0.598713 9.81489 0.814815V1.62963H13.0741V0.814815C13.0741 0.598713 13.16 0.391461 13.3128 0.238654C13.4656 0.0858463 13.6729 0 13.889 0C14.1051 0 14.3123 0.0858463 14.4651 0.238654C14.6179 0.391461 14.7038 0.598713 14.7038 0.814815V1.62963H16.3334C16.7656 1.62963 17.1801 1.80132 17.4857 2.10694C17.7913 2.41255 17.963 2.82705 17.963 3.25926ZM16.3334 3.25926H14.7038V4.07407C14.7038 4.29018 14.6179 4.49743 14.4651 4.65024C14.3123 4.80304 14.1051 4.88889 13.889 4.88889C13.6729 4.88889 13.4656 4.80304 13.3128 4.65024C13.16 4.49743 13.0741 4.29018 13.0741 4.07407V3.25926H9.81489V4.07407C9.81489 4.29018 9.72904 4.49743 9.57623 4.65024C9.42342 4.80304 9.21617 4.88889 9.00007 4.88889C8.78397 4.88889 8.57672 4.80304 8.42391 4.65024C8.2711 4.49743 8.18526 4.29018 8.18526 4.07407V3.25926H4.926V4.07407C4.926 4.29018 4.84015 4.49743 4.68734 4.65024C4.53454 4.80304 4.32728 4.88889 4.11118 4.88889C3.89508 4.88889 3.68783 4.80304 3.53502 4.65024C3.38221 4.49743 3.29637 4.29018 3.29637 4.07407V3.25926H1.66674V18.7407C1.66674 19.1729 1.83843 19.5874 2.14405 19.8931C2.44966 20.1987 2.86416 20.3704 3.29637 20.3704H14.7038C15.136 20.3704 15.5505 20.1987 15.8561 19.8931C16.1617 19.5874 16.3334 19.1729 16.3334 18.7407V3.25926Z" fill="#343330"/>
</svg>
