<svg width="19" height="20" viewBox="0 0 19 20" fill="none" xmlns="http://www.w3.org/2000/svg">
<path d="M12.9902 8.875C12.9902 9.07391 12.9112 9.26468 12.7706 9.40533C12.6299 9.54598 12.4391 9.625 12.2402 9.625H6.24023C6.04132 9.625 5.85056 9.54598 5.7099 9.40533C5.56925 9.26468 5.49023 9.07391 5.49023 8.875C5.49023 8.67609 5.56925 8.48532 5.7099 8.34467C5.85056 8.20402 6.04132 8.125 6.24023 8.125H12.2402C12.4391 8.125 12.6299 8.20402 12.7706 8.34467C12.9112 8.48532 12.9902 8.67609 12.9902 8.875ZM12.2402 11.125H6.24023C6.04132 11.125 5.85056 11.204 5.7099 11.3447C5.56925 11.4853 5.49023 11.6761 5.49023 11.875C5.49023 12.0739 5.56925 12.2647 5.7099 12.4053C5.85056 12.546 6.04132 12.625 6.24023 12.625H12.2402C12.4391 12.625 12.6299 12.546 12.7706 12.4053C12.9112 12.2647 12.9902 12.0739 12.9902 11.875C12.9902 11.6761 12.9112 11.4853 12.7706 11.3447C12.6299 11.204 12.4391 11.125 12.2402 11.125ZM18.9902 10C18.9875 12.4856 17.9989 14.8685 16.2413 16.6261C14.4838 18.3837 12.1008 19.3723 9.61523 19.375H1.7093C1.31983 19.3745 0.946456 19.2196 0.671061 18.9442C0.395666 18.6688 0.240731 18.2954 0.240234 17.9059V10C0.240234 7.5136 1.22795 5.12903 2.98611 3.37087C4.74426 1.61272 7.12883 0.625 9.61523 0.625C12.1016 0.625 14.4862 1.61272 16.2444 3.37087C18.0025 5.12903 18.9902 7.5136 18.9902 10ZM17.4902 10C17.4902 7.91142 16.6605 5.90838 15.1837 4.43153C13.7069 2.95469 11.7038 2.125 9.61523 2.125C7.52665 2.125 5.52362 2.95469 4.04677 4.43153C2.56992 5.90838 1.74023 7.91142 1.74023 10V17.875H9.61523C11.7031 17.8728 13.7049 17.0424 15.1812 15.566C16.6576 14.0896 17.488 12.0879 17.4902 10Z" fill="#B8B8B8"/>
</svg>
