<svg width="28" height="28" viewBox="0 0 28 28" fill="none" xmlns="http://www.w3.org/2000/svg">
<path d="M17.5039 0.5C15.9255 0.501415 14.3699 0.876096 12.964 1.59345C11.558 2.3108 10.3417 3.35049 9.41427 4.62763C8.48683 5.90476 7.87458 7.38314 7.62751 8.94204C7.38045 10.5009 7.50557 12.0962 7.99266 13.5975L0.796407 20.7925C0.703572 20.8854 0.629958 20.9958 0.57977 21.1171C0.529582 21.2385 0.503803 21.3686 0.503907 21.5V26.5C0.503907 26.7652 0.609263 27.0196 0.7968 27.2071C0.984336 27.3946 1.23869 27.5 1.50391 27.5H6.50391C6.76912 27.5 7.02348 27.3946 7.21101 27.2071C7.39855 27.0196 7.50391 26.7652 7.50391 26.5V24.5H9.50391C9.76912 24.5 10.0235 24.3946 10.211 24.2071C10.3985 24.0196 10.5039 23.7652 10.5039 23.5V21.5H12.5039C12.6353 21.5001 12.7654 21.4743 12.8868 21.4241C13.0082 21.3739 13.1185 21.3003 13.2114 21.2075L14.4064 20.0112C15.7808 20.4575 17.2356 20.6005 18.6706 20.4306C20.1056 20.2606 21.4867 19.7817 22.7189 19.0268C23.951 18.2718 25.0049 17.2588 25.808 16.0575C26.611 14.8562 27.1442 13.4951 27.3708 12.0679C27.5973 10.6408 27.5119 9.18145 27.1204 7.79047C26.7288 6.3995 26.0405 5.1099 25.1028 4.01048C24.165 2.91106 23.0001 2.02794 21.6883 1.42191C20.3765 0.815889 18.9489 0.501366 17.5039 0.5ZM17.5039 18.5C16.4916 18.5017 15.4883 18.3104 14.5477 17.9363C14.3637 17.8564 14.1599 17.8337 13.9628 17.8712C13.7658 17.9086 13.5845 18.0045 13.4427 18.1462L12.0902 19.5H9.50391C9.23869 19.5 8.98434 19.6054 8.7968 19.7929C8.60926 19.9804 8.50391 20.2348 8.50391 20.5V22.5H6.50391C6.23869 22.5 5.98434 22.6054 5.7968 22.7929C5.60926 22.9804 5.50391 23.2348 5.50391 23.5V25.5H2.50391V21.9137L9.85766 14.5613C9.99944 14.4194 10.0953 14.2381 10.1327 14.0411C10.1702 13.844 10.1475 13.6403 10.0677 13.4563C9.43527 11.8661 9.32948 10.115 9.76581 8.46023C10.2022 6.80547 11.1576 5.33424 12.4919 4.26263C13.8262 3.19102 15.4689 2.57551 17.1788 2.50651C18.8888 2.4375 20.5757 2.91864 21.992 3.87925C23.4083 4.83986 24.4792 6.22932 25.0475 7.84354C25.6157 9.45776 25.6514 11.2117 25.1492 12.8476C24.647 14.4836 23.6334 15.9154 22.2574 16.9328C20.8813 17.9502 19.2152 18.4995 17.5039 18.5ZM21.5039 8C21.5039 8.29667 21.4159 8.58668 21.2511 8.83335C21.0863 9.08003 20.852 9.27229 20.5779 9.38582C20.3038 9.49935 20.0022 9.52906 19.7113 9.47118C19.4203 9.4133 19.153 9.27044 18.9432 9.06066C18.7335 8.85088 18.5906 8.58361 18.5327 8.29264C18.4748 8.00166 18.5046 7.70006 18.6181 7.42597C18.7316 7.15189 18.9239 6.91762 19.1706 6.7528C19.4172 6.58797 19.7072 6.5 20.0039 6.5C20.4017 6.5 20.7833 6.65804 21.0646 6.93934C21.3459 7.22064 21.5039 7.60218 21.5039 8Z" fill="#343330"/>
</svg>
