<svg width="24" height="24" viewBox="0 0 18 20" fill="none" xmlns="http://www.w3.org/2000/svg">
<path d="M16.3081 0H3.23122C2.41517 0 1.63254 0.324175 1.05551 0.90121C0.478472 1.47824 0.154297 2.26087 0.154297 3.07692V19.2308C0.154297 19.4348 0.235341 19.6304 0.379599 19.7747C0.523858 19.919 0.719515 20 0.923528 20H14.7697C14.9737 20 15.1694 19.919 15.3136 19.7747C15.4579 19.6304 15.5389 19.4348 15.5389 19.2308C15.5389 19.0268 15.4579 18.8311 15.3136 18.6868C15.1694 18.5426 14.9737 18.4615 14.7697 18.4615H1.69276C1.69276 18.0535 1.85485 17.6622 2.14336 17.3737C2.43188 17.0852 2.82319 16.9231 3.23122 16.9231H16.3081C16.5122 16.9231 16.7078 16.842 16.8521 16.6978C16.9963 16.5535 17.0774 16.3579 17.0774 16.1538V0.769231C17.0774 0.565218 16.9963 0.369561 16.8521 0.225302C16.7078 0.0810437 16.5122 0 16.3081 0ZM7.8466 1.53846H12.462V8.46154L10.6149 7.07692C10.4817 6.97706 10.3198 6.92308 10.1533 6.92308C9.9869 6.92308 9.82495 6.97706 9.6918 7.07692L7.8466 8.46154V1.53846ZM15.5389 15.3846H3.23122C2.69097 15.3839 2.16017 15.5262 1.69276 15.7971V3.07692C1.69276 2.6689 1.85485 2.27758 2.14336 1.98907C2.43188 1.70055 2.82319 1.53846 3.23122 1.53846H6.30814V10C6.30814 10.1429 6.34792 10.2829 6.42303 10.4044C6.49813 10.5259 6.60559 10.6241 6.73336 10.688C6.86114 10.7519 7.00418 10.779 7.14646 10.7661C7.28873 10.7533 7.42463 10.7011 7.53891 10.6154L10.1543 8.65385L12.7706 10.6154C12.9035 10.7151 13.0651 10.769 13.2312 10.7692C13.4352 10.7692 13.6309 10.6882 13.7751 10.5439C13.9194 10.3997 14.0005 10.204 14.0005 10V1.53846H15.5389V15.3846Z" fill="#B8B8B8"/>
</svg>
