<svg width="18" height="17" viewBox="0 0 18 17" fill="none" xmlns="http://www.w3.org/2000/svg">
<path d="M17.1559 15.5627C15.966 13.5056 14.1325 12.0306 11.9926 11.3314C13.0511 10.7013 13.8734 9.74117 14.3334 8.59845C14.7934 7.45573 14.8655 6.19361 14.5387 5.00592C14.212 3.81823 13.5044 2.77064 12.5246 2.02402C11.5448 1.2774 10.3471 0.873047 9.11526 0.873047C7.88344 0.873047 6.68568 1.2774 5.70591 2.02402C4.72614 2.77064 4.01854 3.81823 3.69178 5.00592C3.36502 6.19361 3.43716 7.45573 3.89713 8.59845C4.3571 9.74117 5.17946 10.7013 6.23792 11.3314C4.09808 12.0299 2.26448 13.5049 1.07464 15.5627C1.031 15.6338 1.00206 15.713 0.98952 15.7955C0.976977 15.878 0.981088 15.9622 1.00161 16.0431C1.02213 16.124 1.05865 16.2 1.10901 16.2665C1.15936 16.3331 1.22254 16.3889 1.29481 16.4306C1.36708 16.4724 1.44699 16.4992 1.5298 16.5096C1.61262 16.5199 1.69667 16.5136 1.777 16.491C1.85733 16.4683 1.93231 16.4298 1.99752 16.3777C2.06273 16.3256 2.11684 16.261 2.15667 16.1877C3.62854 13.6439 6.23011 12.1252 9.11526 12.1252C12.0004 12.1252 14.602 13.6439 16.0739 16.1877C16.1137 16.261 16.1678 16.3256 16.233 16.3777C16.2982 16.4298 16.3732 16.4683 16.4535 16.491C16.5339 16.5136 16.6179 16.5199 16.7007 16.5096C16.7835 16.4992 16.8634 16.4724 16.9357 16.4306C17.008 16.3889 17.0712 16.3331 17.1215 16.2665C17.1719 16.2 17.2084 16.124 17.2289 16.0431C17.2494 15.9622 17.2535 15.878 17.241 15.7955C17.2285 15.713 17.1995 15.6338 17.1559 15.5627ZM4.74026 6.50017C4.74026 5.63488 4.99685 4.78902 5.47758 4.06955C5.95831 3.35009 6.6416 2.78933 7.44102 2.4582C8.24045 2.12707 9.12012 2.04043 9.96878 2.20924C10.8175 2.37805 11.597 2.79473 12.2089 3.40658C12.8207 4.01843 13.2374 4.79799 13.4062 5.64665C13.575 6.49532 13.4884 7.37499 13.1572 8.17441C12.8261 8.97384 12.2653 9.65712 11.5459 10.1379C10.8264 10.6186 9.98056 10.8752 9.11526 10.8752C7.95532 10.8739 6.84324 10.4126 6.02304 9.59239C5.20284 8.77219 4.7415 7.66011 4.74026 6.50017Z" fill="#B8B8B8"/>
</svg>
