<svg width="26" height="26" viewBox="0 0 26 26" fill="none" xmlns="http://www.w3.org/2000/svg">
<path d="M22.0963 4.23674C19.6759 1.83998 16.4063 0.497003 13 0.500495H12.8663C9.44167 0.535731 6.16932 1.92091 3.7602 4.35507C1.35108 6.78924 -0.000181246 10.0757 1.82344e-08 13.5005C1.82344e-08 18.8755 3.3225 23.383 8.67 25.2717C9.27314 25.4844 9.91847 25.5493 10.5519 25.4611C11.1853 25.3728 11.7883 25.134 12.3104 24.7646C12.8324 24.3953 13.2583 23.9061 13.5523 23.3381C13.8463 22.7702 13.9998 22.14 14 21.5005C14 20.9701 14.2107 20.4614 14.5858 20.0863C14.9609 19.7112 15.4696 19.5005 16 19.5005H21.7763C22.6836 19.5049 23.5652 19.1988 24.2746 18.6331C24.984 18.0674 25.4786 17.2761 25.6763 16.3905C25.8998 15.4064 26.0084 14.3996 26 13.3905C25.9873 11.6823 25.6357 9.99366 24.9656 8.42237C24.2955 6.85107 23.3202 5.42838 22.0963 4.23674ZM23.7213 15.9505C23.6219 16.3917 23.375 16.7858 23.0214 17.0676C22.6677 17.3494 22.2285 17.5021 21.7763 17.5005H16C14.9391 17.5005 13.9217 17.9219 13.1716 18.6721C12.4214 19.4222 12 20.4396 12 21.5005C11.9995 21.82 11.9226 22.1346 11.7755 22.4182C11.6285 22.7018 11.4156 22.9461 11.1548 23.1305C10.894 23.315 10.5927 23.4343 10.2764 23.4784C9.95996 23.5226 9.6376 23.4903 9.33625 23.3842C4.81125 21.788 2 18.0005 2 13.5005C1.99985 10.6027 3.14314 7.82192 5.18151 5.76226C7.21987 3.7026 9.98862 2.53046 12.8862 2.50049H12.9987C15.8965 2.51175 18.6737 3.66147 20.7315 5.7017C22.7892 7.74194 23.9627 10.5092 23.9988 13.4067C24.0062 14.2623 23.9148 15.1159 23.7262 15.9505H23.7213ZM14.5 7.00049C14.5 7.29717 14.412 7.58718 14.2472 7.83385C14.0824 8.08052 13.8481 8.27278 13.574 8.38631C13.2999 8.49985 12.9983 8.52955 12.7074 8.47167C12.4164 8.41379 12.1491 8.27093 11.9393 8.06116C11.7296 7.85138 11.5867 7.5841 11.5288 7.29313C11.4709 7.00216 11.5006 6.70056 11.6142 6.42647C11.7277 6.15238 11.92 5.91811 12.1666 5.75329C12.4133 5.58847 12.7033 5.50049 13 5.50049C13.3978 5.50049 13.7794 5.65853 14.0607 5.93983C14.342 6.22114 14.5 6.60267 14.5 7.00049ZM9 10.0005C9 10.2972 8.91203 10.5872 8.7472 10.8338C8.58238 11.0805 8.34811 11.2728 8.07403 11.3863C7.79994 11.4998 7.49834 11.5296 7.20736 11.4717C6.91639 11.4138 6.64912 11.2709 6.43934 11.0612C6.22956 10.8514 6.0867 10.5841 6.02882 10.2931C5.97094 10.0022 6.00065 9.70056 6.11418 9.42647C6.22771 9.15238 6.41997 8.91811 6.66665 8.75329C6.91332 8.58847 7.20333 8.50049 7.5 8.50049C7.89782 8.50049 8.27936 8.65853 8.56066 8.93983C8.84196 9.22114 9 9.60267 9 10.0005ZM9 17.0005C9 17.2972 8.91203 17.5872 8.7472 17.8339C8.58238 18.0805 8.34811 18.2728 8.07403 18.3863C7.79994 18.4998 7.49834 18.5296 7.20736 18.4717C6.91639 18.4138 6.64912 18.2709 6.43934 18.0612C6.22956 17.8514 6.0867 17.5841 6.02882 17.2931C5.97094 17.0022 6.00065 16.7006 6.11418 16.4265C6.22771 16.1524 6.41997 15.9181 6.66665 15.7533C6.91332 15.5885 7.20333 15.5005 7.5 15.5005C7.89782 15.5005 8.27936 15.6585 8.56066 15.9398C8.84196 16.2211 9 16.6027 9 17.0005ZM20 10.0005C20 10.2972 19.912 10.5872 19.7472 10.8338C19.5824 11.0805 19.3481 11.2728 19.074 11.3863C18.7999 11.4998 18.4983 11.5296 18.2074 11.4717C17.9164 11.4138 17.6491 11.2709 17.4393 11.0612C17.2296 10.8514 17.0867 10.5841 17.0288 10.2931C16.9709 10.0022 17.0007 9.70056 17.1142 9.42647C17.2277 9.15238 17.42 8.91811 17.6666 8.75329C17.9133 8.58847 18.2033 8.50049 18.5 8.50049C18.8978 8.50049 19.2794 8.65853 19.5607 8.93983C19.842 9.22114 20 9.60267 20 10.0005Z" fill="#343330"/>
</svg>
