<svg width="24" height="24" viewBox="0 0 28 20" fill="none" xmlns="http://www.w3.org/2000/svg">
<path d="M27.251 11.6167C27.1556 11.6882 27.0471 11.7402 26.9317 11.7698C26.8162 11.7994 26.696 11.806 26.578 11.7891C26.46 11.7722 26.3465 11.7323 26.244 11.6716C26.1414 11.6109 26.0518 11.5305 25.9803 11.4352C25.4332 10.6998 24.7212 10.1032 23.9014 9.69333C23.0817 9.28345 22.1771 9.07177 21.2606 9.07533C21.0821 9.07531 20.9076 9.02267 20.7589 8.92399C20.6102 8.82532 20.4938 8.68498 20.4245 8.52054C20.3773 8.40887 20.3531 8.2889 20.3531 8.1677C20.3531 8.0465 20.3773 7.92652 20.4245 7.81485C20.4938 7.65041 20.6102 7.51008 20.7589 7.4114C20.9076 7.31272 21.0821 7.26008 21.2606 7.26007C21.7699 7.26002 22.2689 7.11716 22.7011 6.84771C23.1332 6.57826 23.4811 6.19302 23.7053 5.73575C23.9295 5.27848 24.0209 4.7675 23.9692 4.26087C23.9175 3.75424 23.7248 3.27225 23.4129 2.86966C23.1011 2.46706 22.6825 2.16 22.2049 1.98335C21.7272 1.80669 21.2096 1.76753 20.7109 1.87031C20.2121 1.97309 19.7521 2.21368 19.3832 2.56477C19.0143 2.91585 18.7513 3.36336 18.6239 3.85645C18.5941 3.97192 18.5419 4.08038 18.4702 4.17566C18.3985 4.27093 18.3087 4.35115 18.206 4.41173C18.1033 4.4723 17.9896 4.51206 17.8715 4.52871C17.7534 4.54537 17.6332 4.53861 17.5178 4.50881C17.4023 4.47901 17.2938 4.42676 17.1986 4.35505C17.1033 4.28333 17.0231 4.19355 16.9625 4.09083C16.9019 3.98811 16.8622 3.87447 16.8455 3.75639C16.8289 3.63831 16.8356 3.5181 16.8654 3.40264C17.0421 2.71886 17.376 2.08577 17.8404 1.55374C18.3049 1.0217 18.8871 0.6054 19.5407 0.337964C20.1943 0.0705282 20.9014 -0.0406632 21.6056 0.013237C22.3097 0.0671373 22.9916 0.284642 23.5969 0.648444C24.2023 1.01225 24.7143 1.5123 25.0924 2.10883C25.4704 2.70535 25.7041 3.38188 25.7746 4.08458C25.8452 4.78728 25.7508 5.49676 25.499 6.15656C25.2471 6.81636 24.8447 7.40827 24.3239 7.8852C25.558 8.41956 26.6309 9.26753 27.4359 10.3449C27.5074 10.4405 27.5594 10.5492 27.5888 10.6649C27.6182 10.7806 27.6245 10.901 27.6073 11.0192C27.5901 11.1373 27.5498 11.2509 27.4887 11.3534C27.4275 11.456 27.3468 11.5454 27.251 11.6167ZM21.1381 18.6054C21.2038 18.7088 21.2479 18.8243 21.2677 18.9451C21.2876 19.0658 21.2828 19.1894 21.2537 19.3083C21.2246 19.4272 21.1717 19.539 21.0983 19.6369C21.0248 19.7348 20.9323 19.8169 20.8263 19.8782C20.7204 19.9394 20.6031 19.9786 20.4816 19.9934C20.36 20.0081 20.2368 19.9982 20.1192 19.9641C20.0017 19.93 19.8922 19.8724 19.7975 19.7949C19.7027 19.7174 19.6246 19.6215 19.5679 19.5131C18.9961 18.5449 18.1818 17.7426 17.2053 17.1852C16.2289 16.6279 15.1239 16.3347 13.9996 16.3347C12.8752 16.3347 11.7703 16.6279 10.7938 17.1852C9.8173 17.7426 9.00301 18.5449 8.43126 19.5131C8.37452 19.6215 8.29642 19.7174 8.20167 19.7949C8.10692 19.8724 7.99747 19.93 7.8799 19.9641C7.76234 19.9982 7.63909 20.0081 7.51757 19.9934C7.39606 19.9786 7.27878 19.9394 7.1728 19.8782C7.06682 19.8169 6.97433 19.7348 6.90089 19.6369C6.82744 19.539 6.77457 19.4272 6.74545 19.3083C6.71633 19.1894 6.71155 19.0658 6.73142 18.9451C6.75129 18.8243 6.79538 18.7088 6.86105 18.6054C7.741 17.0935 9.0827 15.9037 10.689 15.2109C9.78513 14.5189 9.12086 13.561 8.78954 12.4719C8.45823 11.3829 8.47652 10.2173 8.84186 9.13921C9.2072 8.06107 9.90121 7.12452 10.8263 6.46121C11.7515 5.7979 12.8612 5.44117 13.9996 5.44117C15.1379 5.44117 16.2477 5.7979 17.1728 6.46121C18.0979 7.12452 18.7919 8.06107 19.1573 9.13921C19.5226 10.2173 19.5409 11.3829 19.2096 12.4719C18.8783 13.561 18.214 14.5189 17.3102 15.2109C18.9164 15.9037 20.2581 17.0935 21.1381 18.6054ZM13.9996 14.5211C14.7176 14.5211 15.4195 14.3082 16.0166 13.9093C16.6136 13.5103 17.0789 12.9433 17.3537 12.2799C17.6285 11.6165 17.7004 10.8866 17.5603 10.1823C17.4202 9.47806 17.0745 8.83116 16.5667 8.32342C16.059 7.81568 15.4121 7.46991 14.7078 7.32982C14.0036 7.18974 13.2736 7.26164 12.6102 7.53642C11.9468 7.81121 11.3798 8.27654 10.9809 8.87358C10.582 9.47061 10.369 10.1725 10.369 10.8906C10.369 11.8535 10.7515 12.7769 11.4324 13.4578C12.1133 14.1386 13.0367 14.5211 13.9996 14.5211ZM7.64615 8.1677C7.64615 7.92698 7.55053 7.69612 7.38032 7.5259C7.2101 7.35569 6.97924 7.26007 6.73852 7.26007C6.22926 7.26002 5.73022 7.11716 5.29808 6.84771C4.86594 6.57826 4.51803 6.19302 4.29386 5.73575C4.06969 5.27848 3.97825 4.7675 4.02993 4.26087C4.0816 3.75424 4.27432 3.27225 4.5862 2.86966C4.89808 2.46706 5.31661 2.16 5.79425 1.98335C6.27189 1.80669 6.7895 1.76753 7.28828 1.87031C7.78707 1.97309 8.24703 2.21368 8.61593 2.56477C8.98483 2.91585 9.24788 3.36336 9.37519 3.85645C9.43537 4.08965 9.58572 4.28939 9.79317 4.41173C10.0006 4.53407 10.2482 4.56899 10.4814 4.50881C10.7146 4.44863 10.9143 4.29828 11.0366 4.09083C11.159 3.88338 11.1939 3.63583 11.1337 3.40264C10.957 2.71886 10.6232 2.08577 10.1587 1.55374C9.69428 1.0217 9.11207 0.6054 8.45843 0.337964C7.80479 0.0705282 7.09775 -0.0406632 6.39358 0.013237C5.6894 0.0671373 5.00752 0.284642 4.4022 0.648444C3.79688 1.01225 3.28481 1.5123 2.90676 2.10883C2.5287 2.70535 2.29509 3.38188 2.2245 4.08458C2.15392 4.78728 2.24831 5.49676 2.50017 6.15656C2.75202 6.81636 3.1544 7.40827 3.67527 7.8852C2.44235 8.42006 1.3707 9.268 0.566636 10.3449C0.422054 10.5374 0.359894 10.7796 0.393831 11.018C0.427767 11.2564 0.55502 11.4715 0.747595 11.6161C0.94017 11.7607 1.18229 11.8229 1.4207 11.7889C1.6591 11.755 1.87426 11.6277 2.01884 11.4352C2.5659 10.6998 3.27797 10.1032 4.09773 9.69333C4.91748 9.28345 5.82202 9.07177 6.73852 9.07533C6.97924 9.07533 7.2101 8.9797 7.38032 8.80949C7.55053 8.63927 7.64615 8.40841 7.64615 8.1677Z" fill="#B8B8B8"/>
</svg>

