<svg width="50" height="50" viewBox="0 0 50 50" fill="none" xmlns="http://www.w3.org/2000/svg">
    <rect width="50" height="50" rx="25" fill="#D6D6D6"/>
    <path d="M37.8648 35.5C35.9611 32.2087 33.0273 29.8487 29.6036 28.73C31.2971 27.7218 32.6129 26.1856 33.3489 24.3572C34.0848 22.5289 34.2002 20.5095 33.6774 18.6092C33.1546 16.7089 32.0224 15.0327 30.4548 13.8381C28.8872 12.6436 26.9708 11.9966 24.9999 11.9966C23.0289 11.9966 21.1125 12.6436 19.5449 13.8381C17.9773 15.0327 16.8451 16.7089 16.3223 18.6092C15.7995 20.5095 15.9149 22.5289 16.6508 24.3572C17.3868 26.1856 18.7026 27.7218 20.3961 28.73C16.9724 29.8475 14.0386 32.2075 12.1349 35.5C12.065 35.6138 12.0187 35.7405 11.9987 35.8725C11.9786 36.0045 11.9852 36.1392 12.018 36.2687C12.0508 36.3981 12.1093 36.5197 12.1898 36.6262C12.2704 36.7326 12.3715 36.8219 12.4871 36.8887C12.6028 36.9555 12.7306 36.9985 12.8631 37.015C12.9956 37.0316 13.1301 37.0215 13.2586 36.9853C13.3872 36.949 13.5071 36.8874 13.6115 36.8041C13.7158 36.7207 13.8024 36.6173 13.8661 36.5C16.2211 32.43 20.3836 30 24.9999 30C29.6161 30 33.7786 32.43 36.1336 36.5C36.1973 36.6173 36.2839 36.7207 36.3882 36.8041C36.4926 36.8874 36.6125 36.949 36.7411 36.9853C36.8696 37.0215 37.0041 37.0316 37.1366 37.015C37.2691 36.9985 37.3969 36.9555 37.5126 36.8887C37.6282 36.8219 37.7293 36.7326 37.8099 36.6262C37.8904 36.5197 37.9489 36.3981 37.9817 36.2687C38.0145 36.1392 38.0211 36.0045 38.001 35.8725C37.981 35.7405 37.9347 35.6138 37.8648 35.5ZM17.9999 21C17.9999 19.6155 18.4104 18.2621 19.1796 17.111C19.9487 15.9598 21.042 15.0626 22.3211 14.5328C23.6001 14.003 25.0076 13.8644 26.3655 14.1345C27.7234 14.4046 28.9706 15.0713 29.9496 16.0502C30.9286 17.0292 31.5953 18.2765 31.8653 19.6344C32.1354 20.9922 31.9968 22.3997 31.467 23.6788C30.9372 24.9578 30.04 26.0511 28.8888 26.8203C27.7377 27.5894 26.3843 28 24.9999 28C23.1439 27.998 21.3646 27.2599 20.0523 25.9475C18.74 24.6352 18.0018 22.8559 17.9999 21Z" fill="white"/>
</svg>
